<svg xmlns="http://www.w3.org/2000/svg" width="210" height="32" viewBox="0 0 210 32" fill="none">
<g clip-path="url(#clip0_210_83)">
<path d="M29.1048 9.75238L22.2476 2.89524C22.0952 2.74286 22.1714 2.59048 22.3238 2.51429L31.6952 0C31.8476 0 32 0.152381 32 0.304762L29.4857 9.67619C29.4095 9.82857 29.2571 9.82857 29.1048 9.75238Z" fill="white"/>
<path d="M9.6 29.4857L0.304762 32C0.0761905 32 0 31.9238 0 31.6952L2.51429 22.3238C2.59048 22.1714 2.74286 22.0952 2.89524 22.2476L9.75238 29.1048C9.82857 29.2571 9.82857 29.4095 9.6 29.4857Z" fill="white"/>
<path d="M9.6 29.4857L0.304762 32C0.0761905 32 0 31.9238 0 31.6952L2.51429 22.3238C2.59048 22.1714 2.74286 22.0952 2.89524 22.2476L9.75238 29.1048C9.82857 29.2571 9.82857 29.4095 9.6 29.4857Z" fill="white"/>
<path d="M29.1048 9.75238L22.2476 2.89524C22.0952 2.74286 22.1714 2.59048 22.3238 2.51429L31.6952 0C31.8476 0 32 0.152381 32 0.304762L29.4857 9.67619C29.4095 9.82857 29.2571 9.82857 29.1048 9.75238Z" fill="white"/>
<path d="M9.6 29.4857L0.304762 32C0.0761905 32 0 31.9238 0 31.6952L2.51429 22.3238C2.59048 22.1714 2.74286 22.0952 2.89524 22.2476L9.75238 29.1048C9.82857 29.2571 9.82857 29.4095 9.6 29.4857Z" fill="white"/>
<path d="M29.1048 9.75238L22.2476 2.89524C22.0952 2.74286 22.1714 2.59048 22.3238 2.51429L31.6952 0C31.8476 0 32 0.152381 32 0.304762L29.4857 9.67619C29.4095 9.82857 29.2571 9.82857 29.1048 9.75238Z" fill="white"/>
<path d="M9.67619 2.97143L4.49524 4.34286C4.41905 4.34286 4.34286 4.41905 4.34286 4.49524L2.97143 9.67619C2.89524 9.90476 2.59048 9.90476 2.59048 9.67619L0 0.304762C0 0.0761905 0.0761905 0 0.304762 0L9.67619 2.51429C9.82857 2.59048 9.82857 2.89524 9.67619 2.97143Z" fill="white"/>
<path d="M25.4476 23.3144L22.0952 19.8858C22.019 19.8096 22.019 19.7334 22.0952 19.6572C23.4667 17.3715 23.4667 14.4763 22.019 12.2668C21.7143 11.8096 21.4095 11.4287 21.0286 11.0477C20.6476 10.6668 20.2667 10.362 19.8095 10.0572C17.5238 8.60963 14.6286 8.60963 12.419 9.98106C12.3428 10.0572 12.1905 10.0572 12.1905 9.98106L8.76189 6.55248C8.60951 6.4001 8.6857 6.24772 8.83808 6.17153L16 4.19058L18.4381 3.58105C18.5143 3.58105 18.5905 3.58105 18.6667 3.65725L28.419 13.4096C28.4952 13.4858 28.4952 13.562 28.4952 13.6382L27.8095 16.0001L25.9048 23.2382C25.8286 23.3906 25.6 23.3906 25.4476 23.3144Z" fill="white"/>
<path d="M23.3143 25.4475C23.4667 25.5999 23.3905 25.7523 23.2381 25.8285L16 27.8094L13.5619 28.4951C13.4857 28.4951 13.4095 28.4951 13.3333 28.4189L3.65712 18.6666C3.58093 18.5904 3.58093 18.5142 3.58093 18.438L4.19046 15.9999L6.09522 8.76179C6.17141 8.60941 6.32379 8.53322 6.47617 8.6856L9.90474 12.1142C9.98093 12.1904 9.98093 12.2666 9.90474 12.3427C8.53331 14.6285 8.53331 17.5237 9.98093 19.7332C10.2857 20.1904 10.5905 20.5713 10.9714 20.9523C11.3524 21.3332 11.7333 21.638 12.1905 21.9427C14.4762 23.3904 17.3714 23.3904 19.5809 22.0189C19.6571 21.9427 19.8095 21.9427 19.8095 22.0189L23.3143 25.4475Z" fill="white"/>
<path d="M22.3238 29.0285L27.5047 27.6571C27.5809 27.6571 27.6571 27.5809 27.6571 27.5047L29.0285 22.3238C29.1047 22.0952 29.4095 22.0952 29.4095 22.3238L32 31.6952C32.0762 31.8476 31.9238 32 31.7714 31.9238L22.3238 29.4095C22.0952 29.4095 22.0952 29.1047 22.3238 29.0285Z" fill="white"/>
<path d="M18.8952 18.8952C18.5143 19.2762 18.0571 19.581 17.6 19.8095C16.6095 20.1905 15.4667 20.1905 14.4762 19.8095C14.0191 19.581 13.5619 19.3524 13.181 18.8952C12.8 18.5143 12.4952 18.0571 12.2667 17.6C11.8857 16.6095 11.8857 15.4667 12.2667 14.4762C12.4952 14.0191 12.7238 13.5619 13.181 13.181C13.5619 12.8 14.0191 12.4952 14.4762 12.2667C15.4667 11.8857 16.6095 11.8857 17.6 12.2667C18.0571 12.4952 18.5143 12.7238 18.8952 13.1048C19.2762 13.4857 19.581 13.9429 19.8095 14.4C20.1905 15.3905 20.1905 16.5333 19.8095 17.5238C19.581 18.0571 19.2762 18.4381 18.8952 18.8952Z" fill="white"/>
<path d="M58.2095 10.8953C57.6 9.98097 56.6857 9.21907 55.5428 8.68573C54.4 8.1524 53.0285 7.92383 51.5047 7.92383H44.419C44.3428 7.92383 44.1904 8.00002 44.1904 8.1524V25.5238C44.1904 25.6 44.2666 25.7524 44.419 25.7524H47.3142C47.3904 25.7524 47.5428 25.6762 47.5428 25.5238V20.8C47.5428 20.7238 47.619 20.5714 47.7714 20.5714H51.5809C53.1047 20.5714 54.4761 20.3429 55.619 19.8095C56.7619 19.2762 57.6 18.5905 58.2857 17.6C58.8952 16.6095 59.2 15.5429 59.2 14.2476C59.1238 12.9524 58.819 11.8095 58.2095 10.8953ZM54.6285 16.9143C53.8666 17.5238 52.8 17.8286 51.3523 17.8286H47.6952C47.619 17.8286 47.4666 17.7524 47.4666 17.6V10.9714C47.4666 10.8953 47.5428 10.7429 47.6952 10.7429H51.3523C52.8 10.7429 53.8666 11.0476 54.6285 11.6572C55.3904 12.2667 55.7714 13.1048 55.7714 14.2476C55.7714 15.3905 55.3904 16.2286 54.6285 16.9143Z" fill="white"/>
<path d="M69.6381 12.0381C67.7333 12.0381 66.2857 12.6476 65.3714 13.7143C65.2191 13.8667 64.9905 13.7905 64.9905 13.5619V12.419C64.9905 12.3428 64.9143 12.1905 64.7619 12.1905H62.1714C62.0952 12.1905 61.9429 12.2667 61.9429 12.419V25.6C61.9429 25.6762 62.0191 25.8286 62.1714 25.8286H64.9143C64.9905 25.8286 65.1429 25.7524 65.1429 25.6V19.2C65.1429 17.8286 65.5238 16.8381 66.2095 16.0762C66.8953 15.3905 67.8857 15.0095 69.1048 15.0095C69.2572 15.0095 69.4095 15.0095 69.6381 15.0857C69.7905 15.0857 69.8667 15.0095 69.8667 14.8571V12.1905C69.7905 12.1143 69.7143 12.0381 69.6381 12.0381Z" fill="white"/>
<path d="M76.6476 7.31426C76.5714 7.23807 76.5714 7.23807 76.6476 7.31426C76.1143 6.47617 75.5047 6.09521 74.6666 6.09521C74.0571 6.09521 73.6 6.2476 73.219 6.62855C72.8381 7.0095 72.6095 7.46664 72.6095 7.99998C72.6095 8.53331 72.8381 8.99045 73.219 9.37141C73.6 9.75236 74.0571 9.90474 74.6666 9.90474C75.2762 9.90474 75.7333 9.75236 76.1143 9.29521C76.6476 8.83807 76.8 8.15236 76.6476 7.31426ZM76.0381 12.1905H73.2952C73.219 12.1905 73.0666 12.2666 73.0666 12.419V25.6C73.0666 25.6762 73.1428 25.8286 73.2952 25.8286H76.0381C76.1143 25.8286 76.2666 25.7524 76.2666 25.6V12.3428C76.2666 12.2666 76.1143 12.1905 76.0381 12.1905Z" fill="white"/>
<path d="M101.028 13.4857C100.038 12.4952 98.6666 11.9619 96.9904 11.9619C95.9237 11.9619 94.9332 12.1905 94.0952 12.5714C93.3332 12.9524 92.6475 13.4095 92.1142 14.0191C92.038 14.0952 91.8856 14.0952 91.8094 14.0191C91.3523 13.4095 90.819 12.8762 90.0571 12.5714C89.2951 12.1905 88.3809 11.9619 87.3142 11.9619C86.3999 11.9619 85.5618 12.1143 84.7999 12.4191C84.1904 12.6476 83.6571 13.0286 83.1999 13.4857C83.0475 13.6381 82.8952 13.4857 82.8952 13.3333V12.3429C82.8952 12.2667 82.819 12.1143 82.6666 12.1143H80.0761C79.9999 12.1143 79.8475 12.1905 79.8475 12.3429V25.5238C79.8475 25.6 79.9237 25.7524 80.0761 25.7524H82.819C82.8951 25.7524 83.0475 25.6762 83.0475 25.5238V18.8191C83.0475 17.5238 83.3523 16.4572 83.9618 15.7714C84.5713 15.0857 85.4856 14.7048 86.5523 14.7048C87.5428 14.7048 88.3047 15.0095 88.838 15.6191C89.3713 16.2286 89.5999 17.1429 89.5999 18.2857V25.4476C89.5999 25.5238 89.6761 25.6762 89.8285 25.6762H92.5713C92.6475 25.6762 92.7999 25.6 92.7999 25.4476V18.7429C92.7999 17.4476 93.1047 16.4572 93.7904 15.7714C94.3999 15.0857 95.3142 14.7048 96.3809 14.7048C97.3713 14.7048 98.1332 15.0095 98.6666 15.6191C99.1999 16.2286 99.4285 17.1429 99.4285 18.2857V25.4476C99.4285 25.5238 99.5047 25.6762 99.6571 25.6762H102.4C102.476 25.6762 102.628 25.6 102.628 25.4476V17.9048C102.476 16 102.019 14.4762 101.028 13.4857Z" fill="white"/>
<path d="M112.381 21.1048L108.571 24.9143L108.648 24.9905C109.714 25.6 111.009 25.9048 112.381 25.9048C113.752 25.9048 115.048 25.6 116.114 24.9905C116.114 24.9905 116.19 24.9905 116.19 24.9143L112.381 21.1048ZM106.286 15.0095C106.209 15.0857 106.133 15.2381 106.057 15.3143C105.448 16.381 105.143 17.5238 105.143 18.8952C105.143 20.2667 105.448 21.4095 106.057 22.4762C106.133 22.5524 106.209 22.7048 106.286 22.781L110.171 18.8952L106.286 15.0095ZM118.705 15.3143C118.629 15.2381 118.552 15.0857 118.476 15.0095L114.59 18.8952L118.476 22.781C118.552 22.7048 118.629 22.5524 118.705 22.4762C119.314 21.4095 119.619 20.1905 119.619 18.8952C119.619 17.6 119.314 16.381 118.705 15.3143ZM116.114 12.8762C115.048 12.2667 113.752 11.9619 112.381 11.9619C111.009 11.9619 109.79 12.2667 108.648 12.8762C108.648 12.8762 108.571 12.8762 108.571 12.9524L112.381 16.7619L116.19 12.9524L116.114 12.8762Z" fill="white"/>
<path d="M129.981 12.0381C128.076 12.0381 126.629 12.6476 125.714 13.7143C125.562 13.8667 125.333 13.7905 125.333 13.5619V12.419C125.333 12.3428 125.257 12.1905 125.105 12.1905H122.514C122.438 12.1905 122.286 12.2667 122.286 12.419V25.6C122.286 25.6762 122.362 25.8286 122.514 25.8286H125.257C125.333 25.8286 125.486 25.7524 125.486 25.6V19.2C125.486 17.8286 125.867 16.8381 126.552 16.0762C127.238 15.3905 128.228 15.0095 129.448 15.0095C129.6 15.0095 129.752 15.0095 129.981 15.0857C130.133 15.0857 130.209 15.0095 130.209 14.8571V12.1905C130.209 12.1143 130.133 12.0381 129.981 12.0381Z" fill="white"/>
<path d="M145.829 6.85718H143.086C143.009 6.85718 142.857 6.93337 142.857 7.08575V13.3334C142.857 13.4857 142.629 13.5619 142.552 13.4857C142.095 13.0286 141.562 12.7238 140.952 12.4953C140.19 12.1905 139.352 12.0381 138.514 12.0381C137.219 12.0381 136 12.3429 135.009 12.8762C133.943 13.4857 133.181 14.2477 132.571 15.3143C131.962 16.381 131.657 17.6 131.657 18.9715C131.657 20.3429 131.962 21.5619 132.571 22.6286C133.181 23.6953 133.943 24.5334 135.009 25.0667C136.076 25.6762 137.219 25.9048 138.514 25.9048C139.429 25.9048 140.267 25.7524 141.029 25.4477C141.638 25.2191 142.171 24.8381 142.629 24.381C142.781 24.2286 142.933 24.3048 142.933 24.5334V25.6C142.933 25.6762 143.009 25.8286 143.162 25.8286H145.829C145.905 25.8286 146.057 25.7524 146.057 25.6V7.08575C146.057 6.93337 145.981 6.85718 145.829 6.85718ZM142.4 21.181C142.019 21.7905 141.562 22.3238 140.952 22.7048C140.343 23.0857 139.657 23.2381 138.895 23.2381C138.133 23.2381 137.448 23.0857 136.838 22.7048C136.229 22.3238 135.771 21.8667 135.39 21.181C135.009 20.5715 134.857 19.8096 134.857 18.9715C134.857 18.1334 135.009 17.3715 135.39 16.7619C135.771 16.1524 136.229 15.6191 136.838 15.3143C137.448 14.9334 138.133 14.781 138.895 14.781C139.657 14.781 140.343 14.9334 140.952 15.3143C141.562 15.6953 142.019 16.1524 142.4 16.7619C142.781 17.3715 142.933 18.1334 142.933 18.9715C142.933 19.8096 142.781 20.4953 142.4 21.181Z" fill="white"/>
<path d="M153.676 7.31426C153.6 7.23807 153.6 7.23807 153.676 7.31426C153.143 6.47617 152.533 6.09521 151.695 6.09521C151.086 6.09521 150.629 6.2476 150.248 6.62855C149.867 7.0095 149.638 7.46664 149.638 7.99998C149.638 8.53331 149.867 8.99045 150.248 9.37141C150.629 9.75236 151.086 9.90474 151.695 9.90474C152.305 9.90474 152.762 9.75236 153.143 9.29521C153.676 8.83807 153.829 8.15236 153.676 7.31426ZM153.067 12.1905H150.324C150.248 12.1905 150.095 12.2666 150.095 12.419V25.6C150.095 25.6762 150.171 25.8286 150.324 25.8286H153.067C153.143 25.8286 153.295 25.7524 153.295 25.6V12.3428C153.295 12.2666 153.143 12.1905 153.067 12.1905Z" fill="white"/>
<path d="M167.314 13.4095C166.248 12.4191 164.724 11.9619 162.743 11.9619C161.6 11.9619 160.533 12.1143 159.543 12.4191C158.629 12.7238 157.79 13.1048 157.105 13.5619C157.029 13.6381 157.029 13.7143 157.029 13.7905L158.095 15.7714C158.171 15.8476 158.324 15.9238 158.4 15.8476C158.857 15.4667 159.467 15.2381 160.076 15.0095C160.838 14.781 161.6 14.6286 162.286 14.6286C163.429 14.6286 164.267 14.8572 164.8 15.3905C165.333 15.9238 165.638 16.6095 165.638 17.6V17.8286H162.133C160.152 17.8286 158.781 18.2095 157.867 18.8952C156.952 19.6572 156.495 20.5714 156.495 21.7905C156.495 22.5524 156.724 23.2381 157.105 23.8476C157.486 24.4572 158.095 24.9143 158.857 25.2952C159.619 25.6762 160.533 25.8286 161.524 25.8286C162.514 25.8286 163.429 25.6762 164.114 25.3714C164.648 25.1429 165.105 24.8381 165.41 24.4572C165.562 24.3048 165.79 24.381 165.79 24.6095V25.2191C165.79 25.4476 166.019 25.6762 166.248 25.6762H168.61C168.686 25.6762 168.838 25.6 168.838 25.4476V17.7524C168.914 15.8476 168.381 14.4 167.314 13.4095ZM165.714 21.4095V21.4857C165.486 22.1714 165.029 22.6286 164.419 23.0095C163.81 23.3905 163.124 23.5429 162.286 23.5429C161.448 23.5429 160.838 23.3905 160.381 23.0095C159.924 22.7048 159.695 22.2476 159.695 21.6381C159.695 20.4191 160.61 19.8095 162.438 19.8095H165.486C165.562 19.8095 165.714 19.8857 165.714 20.0381V21.4095Z" fill="white"/>
<path d="M175.39 6.85718H172.648C172.571 6.85718 172.419 6.93337 172.419 7.08575V25.5238C172.419 25.6 172.495 25.7524 172.648 25.7524H175.39C175.467 25.7524 175.619 25.6762 175.619 25.5238V7.08575C175.543 6.93337 175.467 6.85718 175.39 6.85718Z" fill="white"/>
<path d="M182.248 22.2477C181.867 21.8668 181.333 21.6382 180.724 21.6382C180.114 21.6382 179.657 21.8668 179.2 22.2477C178.819 22.6287 178.59 23.162 178.59 23.7715C178.59 24.381 178.819 24.9144 179.2 25.2953C179.581 25.6763 180.114 25.9049 180.648 25.9049C181.257 25.9049 181.714 25.6763 182.095 25.2953C182.476 24.9144 182.705 24.381 182.705 23.7715C182.857 23.162 182.629 22.6287 182.248 22.2477Z" fill="white"/>
<path d="M193.6 12.0381C191.695 12.0381 190.248 12.6476 189.333 13.7143C189.181 13.8667 188.952 13.7905 188.952 13.5619V12.419C188.952 12.3428 188.876 12.1905 188.724 12.1905H186.133C186.057 12.1905 185.905 12.2667 185.905 12.419V25.6C185.905 25.6762 185.981 25.8286 186.133 25.8286H188.876C188.952 25.8286 189.105 25.7524 189.105 25.6V19.2C189.105 17.8286 189.486 16.8381 190.171 16.0762C190.857 15.3905 191.848 15.0095 193.067 15.0095C193.219 15.0095 193.371 15.0095 193.6 15.0857C193.752 15.0857 193.828 15.0095 193.828 14.8571V12.1905C193.752 12.1143 193.676 12.0381 193.6 12.0381Z" fill="white"/>
<path d="M208.762 15.3143C208.152 14.2476 207.314 13.4095 206.171 12.8762C205.105 12.2667 203.809 11.9619 202.438 11.9619C201.067 11.9619 199.848 12.2667 198.705 12.8762C197.638 13.4857 196.724 14.3238 196.114 15.3143C195.505 16.381 195.2 17.5238 195.2 18.8952C195.2 20.2667 195.505 21.4095 196.114 22.4762C196.724 23.5429 197.562 24.381 198.705 24.9905C199.771 25.6 201.067 25.9048 202.438 25.9048C203.809 25.9048 205.105 25.6 206.171 24.9905C207.238 24.381 208.152 23.5429 208.762 22.4762C209.371 21.4095 209.676 20.1905 209.676 18.8952C209.676 17.6 209.371 16.381 208.762 15.3143ZM205.333 22.0191C204.571 22.781 203.581 23.1619 202.438 23.1619C201.295 23.1619 200.305 22.781 199.543 22.0191C198.781 21.2572 198.4 20.1905 198.4 18.9714C198.4 17.6762 198.781 16.6857 199.543 15.9238C200.305 15.1619 201.295 14.781 202.438 14.781C203.581 14.781 204.571 15.1619 205.333 15.9238C206.095 16.6857 206.476 17.7524 206.476 18.9714C206.476 20.1905 206.095 21.2572 205.333 22.0191Z" fill="white"/>
</g>
<defs>
<clipPath id="clip0_210_83">
<rect width="209.676" height="32" fill="white"/>
</clipPath>
</defs>
</svg>